<svg width="132" height="38" viewBox="0 0 132 38" fill="none" xmlns="http://www.w3.org/2000/svg">
<path d="M43.2656 15H41.8281V4.85938H37.375V15H35.9453V3.625H43.2656V15ZM53.2109 10.3125C53.2109 11.8646 52.8802 13.0599 52.2188 13.8984C51.5573 14.737 50.6172 15.1562 49.3984 15.1562C48.2266 15.1562 47.2995 14.75 46.6172 13.9375C45.9401 13.1198 45.5885 11.9661 45.5625 10.4766V8.33594C45.5625 6.8151 45.8984 5.625 46.5703 4.76562C47.2422 3.90104 48.1797 3.46875 49.3828 3.46875C50.5807 3.46875 51.513 3.88281 52.1797 4.71094C52.8516 5.53385 53.1953 6.71094 53.2109 8.24219V10.3125ZM51.7812 8.32031C51.7812 7.11719 51.5833 6.22396 51.1875 5.64062C50.7969 5.05208 50.1953 4.75781 49.3828 4.75781C48.5964 4.75781 48 5.05469 47.5938 5.64844C47.1927 6.24219 46.9896 7.11719 46.9844 8.27344V10.3125C46.9844 11.474 47.1849 12.3594 47.5859 12.9688C47.9922 13.5781 48.5964 13.8828 49.3984 13.8828C50.2005 13.8828 50.7943 13.6016 51.1797 13.0391C51.5651 12.4766 51.7656 11.6146 51.7812 10.4531V8.32031ZM62.5547 11.3906C62.4922 12.6094 62.1484 13.5417 61.5234 14.1875C60.9036 14.8333 60.026 15.1562 58.8906 15.1562C57.75 15.1562 56.8438 14.724 56.1719 13.8594C55.5 12.9896 55.1641 11.8125 55.1641 10.3281V8.26562C55.1641 6.78646 55.5078 5.61719 56.1953 4.75781C56.888 3.89844 57.8307 3.46875 59.0234 3.46875C60.1224 3.46875 60.9714 3.79948 61.5703 4.46094C62.1745 5.11719 62.5026 6.05729 62.5547 7.28125H61.1094C61.0469 6.35417 60.8516 5.69271 60.5234 5.29688C60.1953 4.90104 59.6953 4.70312 59.0234 4.70312C58.2474 4.70312 57.651 5.00781 57.2344 5.61719C56.8177 6.22135 56.6094 7.10938 56.6094 8.28125V10.3672C56.6094 11.5182 56.8021 12.401 57.1875 13.0156C57.5781 13.6302 58.1458 13.9375 58.8906 13.9375C59.6354 13.9375 60.1719 13.7526 60.5 13.3828C60.8281 13.013 61.0312 12.349 61.1094 11.3906H62.5547ZM66.3438 3.625L69.3125 12.9062L72.2812 3.625H74.125V15H72.6953V10.5703L72.8281 6.13281L69.8516 15H68.7578L65.7969 6.16406L65.9297 10.5703V15H64.5V3.625H66.3438ZM83.9922 10.3125C83.9922 11.8646 83.6615 13.0599 83 13.8984C82.3385 14.737 81.3984 15.1562 80.1797 15.1562C79.0078 15.1562 78.0807 14.75 77.3984 13.9375C76.7214 13.1198 76.3698 11.9661 76.3438 10.4766V8.33594C76.3438 6.8151 76.6797 5.625 77.3516 4.76562C78.0234 3.90104 78.9609 3.46875 80.1641 3.46875C81.362 3.46875 82.2943 3.88281 82.9609 4.71094C83.6328 5.53385 83.9766 6.71094 83.9922 8.24219V10.3125ZM82.5625 8.32031C82.5625 7.11719 82.3646 6.22396 81.9688 5.64062C81.5781 5.05208 80.9766 4.75781 80.1641 4.75781C79.3776 4.75781 78.7812 5.05469 78.375 5.64844C77.974 6.24219 77.7708 7.11719 77.7656 8.27344V10.3125C77.7656 11.474 77.9661 12.3594 78.3672 12.9688C78.7734 13.5781 79.3776 13.8828 80.1797 13.8828C80.9818 13.8828 81.5755 13.6016 81.9609 13.0391C82.3464 12.4766 82.5469 11.6146 82.5625 10.4531V8.32031ZM92.6328 4.85938H89.6406V15H88.2109V4.85938H85.2266V3.625H92.6328V4.85938ZM95.7422 10.5469V15H94.3125V3.625H97.9375C98.9948 3.625 99.8255 3.94271 100.43 4.57812C101.034 5.20833 101.336 6.04948 101.336 7.10156C101.336 8.19531 101.047 9.03906 100.469 9.63281C99.8958 10.2214 99.0859 10.526 98.0391 10.5469H95.7422ZM95.7422 9.32031H97.9375C98.5729 9.32031 99.0599 9.13021 99.3984 8.75C99.737 8.36979 99.9062 7.82552 99.9062 7.11719C99.9062 6.4349 99.7318 5.88802 99.3828 5.47656C99.0339 5.0651 98.5547 4.85938 97.9453 4.85938H95.7422V9.32031ZM108.641 9.74219H104.617V13.7734H109.305V15H103.188V3.625H109.227V4.85938H104.617V8.51562H108.641V9.74219ZM117.945 4.85938H114.953V15H113.523V4.85938H110.539V3.625H117.945V4.85938ZM121.141 8.26562H123.438C124.458 8.27083 125.258 8.57031 125.836 9.16406C126.414 9.7526 126.703 10.5651 126.703 11.6016C126.703 12.6432 126.409 13.4714 125.82 14.0859C125.237 14.6953 124.427 15 123.391 15H119.711V3.625H121.141V8.26562ZM121.141 9.5V13.7734H123.422C124.005 13.7734 124.458 13.5729 124.781 13.1719C125.104 12.7708 125.266 12.2422 125.266 11.5859C125.266 10.9401 125.104 10.4323 124.781 10.0625C124.464 9.6875 124.013 9.5 123.43 9.5H121.141ZM38.6172 34H37.1797V23.8594H32.7266V34H31.2969V22.625H38.6172V34ZM42.5938 29.5469V34H41.1641V22.625H44.7891C45.8464 22.625 46.6771 22.9427 47.2812 23.5781C47.8854 24.2083 48.1875 25.0495 48.1875 26.1016C48.1875 27.1953 47.8984 28.0391 47.3203 28.6328C46.7474 29.2214 45.9375 29.526 44.8906 29.5469H42.5938ZM42.5938 28.3203H44.7891C45.4245 28.3203 45.9115 28.1302 46.25 27.75C46.5885 27.3698 46.7578 26.8255 46.7578 26.1172C46.7578 25.4349 46.5833 24.888 46.2344 24.4766C45.8854 24.0651 45.4062 23.8594 44.7969 23.8594H42.5938V28.3203ZM55.4922 28.7422H51.4688V32.7734H56.1562V34H50.0391V22.625H56.0781V23.8594H51.4688V27.5156H55.4922V28.7422ZM62.7734 25.6797C62.7734 25.0703 62.599 24.5885 62.25 24.2344C61.9062 23.8802 61.4271 23.7031 60.8125 23.7031C60.2917 23.7031 59.8568 23.8854 59.5078 24.25C59.1641 24.6146 58.9922 25.0703 58.9922 25.6172H57.5625C57.5625 24.6849 57.8724 23.9271 58.4922 23.3438C59.112 22.7604 59.8854 22.4688 60.8125 22.4688C61.8906 22.4688 62.7266 22.7552 63.3203 23.3281C63.9141 23.901 64.2109 24.6927 64.2109 25.7031C64.2109 26.2292 64.0729 26.7083 63.7969 27.1406C63.5208 27.5729 63.1406 27.9141 62.6562 28.1641C63.7865 28.6172 64.3516 29.5052 64.3516 30.8281C64.3516 31.8594 64.026 32.6719 63.375 33.2656C62.7292 33.8594 61.875 34.1562 60.8125 34.1562C60.3542 34.1562 59.9115 34.0833 59.4844 33.9375C59.0625 33.7865 58.6927 33.5599 58.375 33.2578C57.7396 32.6589 57.4219 31.8542 57.4219 30.8438H58.8516C58.8516 31.4375 59.0339 31.9349 59.3984 32.3359C59.7682 32.737 60.2396 32.9375 60.8125 32.9375C61.4531 32.9375 61.9635 32.75 62.3438 32.375C62.7292 31.9948 62.9219 31.4896 62.9219 30.8594C62.9219 29.5365 62.2891 28.8568 61.0234 28.8203H59.8516V27.5859H60.9219C61.526 27.5859 61.9844 27.4219 62.2969 27.0938C62.6146 26.7656 62.7734 26.2943 62.7734 25.6797ZM71.7266 28.7422H67.7031V32.7734H72.3906V34H66.2734V22.625H72.3125V23.8594H67.7031V27.5156H71.7266V28.7422ZM81.6719 34H80.2344V28.7422H75.6562V34H74.2266V22.625H75.6562V27.5156H80.2344V22.625H81.6719V34ZM90.5625 23.8594H87.5703V34H86.1406V23.8594H83.1562V22.625H90.5625V23.8594ZM96.9219 31.0312H93.0781L92.1953 34H90.7266L94.3906 22.625H95.6172L99.2891 34H97.8203L96.9219 31.0312ZM93.4531 29.7969H96.5547L95 24.625L93.4531 29.7969ZM100.906 22.625H102.344V32.7734H106.789V22.625H108.219V32.7422H109.25L109.109 36.7422H107.828V34H100.906V22.625ZM117 22.625H118.43V34H117V25.2344L112.57 34H111.133V22.625H112.57V31.3906L117 22.625ZM131.406 29.3125C131.406 30.8646 131.076 32.0599 130.414 32.8984C129.753 33.737 128.812 34.1562 127.594 34.1562C126.422 34.1562 125.495 33.75 124.812 32.9375C124.135 32.1198 123.784 30.9661 123.758 29.4766V29.0234H122.477V34H121.047V22.625H122.477V27.8438H123.758V27.2656C123.763 26.2708 123.919 25.4115 124.227 24.6875C124.534 23.9635 124.971 23.4141 125.539 23.0391C126.112 22.6589 126.792 22.4688 127.578 22.4688C128.776 22.4688 129.708 22.8828 130.375 23.7109C131.047 24.5339 131.391 25.7109 131.406 27.2422V29.3125ZM129.977 27.3203C129.977 26.1172 129.779 25.224 129.383 24.6406C128.992 24.0521 128.391 23.7578 127.578 23.7578C126.792 23.7578 126.195 24.0547 125.789 24.6484C125.388 25.2422 125.185 26.1172 125.18 27.2734V29.3125C125.18 30.474 125.38 31.3594 125.781 31.9688C126.188 32.5781 126.792 32.8828 127.594 32.8828C128.396 32.8828 128.99 32.6016 129.375 32.0391C129.76 31.4766 129.961 30.6146 129.977 29.4531V27.3203Z" fill="#FEFEFE"/>
<path d="M12.5 6C5.60708 6 0 11.6076 0 18.5C0 25.3924 5.60708 31 12.5 31C19.3929 31 25 25.3924 25 18.5C25 11.6076 19.3929 6 12.5 6ZM12.5 29.9583C6.18184 29.9583 1.04165 24.8182 1.04165 18.5C1.04165 12.1818 6.18184 7.04165 12.5 7.04165C18.8182 7.04165 23.9583 12.1818 23.9583 18.5C23.9583 24.8182 18.8182 29.9583 12.5 29.9583Z" fill="#FEFEFE"/>
<path d="M17.4693 18.062L10.1776 13.3745C10.0179 13.2703 9.81143 13.2646 9.64663 13.3552C9.47876 13.4467 9.375 13.6217 9.375 13.8125V23.1874C9.375 23.3782 9.47876 23.5532 9.64663 23.6447C9.72393 23.687 9.8104 23.7083 9.89585 23.7083C9.99351 23.7083 10.0922 23.6808 10.1776 23.6254L17.4693 18.9379C17.6178 18.8423 17.7083 18.677 17.7083 18.5C17.7083 18.3229 17.6178 18.1577 17.4693 18.062ZM10.4167 22.2332V14.7667L16.2242 18.5L10.4167 22.2332Z" fill="#FEFEFE"/>
</svg>
